# xmcd
# 
# Track frame offsets:
#     150
#     16465
#     32490
#     53502
#     64165
#     82130
#     94492
#     111710
#     132837
#     146810
#     169127
# 
# Disc length: 2501
# 
# Revision: 0
# Processed by: cddbd v1.5.2PL0 Copyright (c) Steve Scherf et al.
# Submitted via: fre:ac v1.0.31
# 
DISCID=9f09c30b
DTITLE=LeAnn Rimes - You Light Up My Life
DYEAR=1997
DGENRE=Pop
TTITLE0=You Light Up My Life
TTITLE1=The Rose
TTITLE2=Bridge Over Troubled Water
TTITLE3=I Believe
TTITLE4=Ten Thousand Angels Cried
TTITLE5=Clinging To A Saving Hand
TTITLE6=On The Side Of Angels
TTITLE7=I Know Who Holds Tomorrow
TTITLE8=God Bless America
TTITLE9=How Do I Live (Extended Mix)
TTITLE10=Amazing Grace
EXTD=Inspirational Songs
EXTT0=
EXTT1=
EXTT2=
EXTT3=
EXTT4=
EXTT5=
EXTT6=
EXTT7=
EXTT8=
EXTT9=
EXTT10=
PLAYORDER=
